HIERARCHY
ROOT hip
{
	OFFSET 0.000000 0.000000 0.000000 
	CHANNELS 6 Xposition Yposition Zposition Xrotation Zrotation Yrotation
	JOINT abdomen
	{
		OFFSET 0.000000 3.402643 0.000000 
		CHANNELS 3 Xrotation Zrotation Yrotation
		JOINT chest
		{
			OFFSET 0.000000 8.438565 -0.680529 
			CHANNELS 3 Xrotation Zrotation Yrotation
			JOINT neck
			{
				OFFSET 0.000000 10.207942 -0.272212 
				CHANNELS 3 Xrotation Zrotation Yrotation
				JOINT head
				{
					OFFSET 0.000000 3.130431 0.000000 
					CHANNELS 3 Xrotation Zrotation Yrotation
					End Site
					{
						OFFSET 0.000000 3.130435 0.000000 
					}
				}
			}
			JOINT lCollar
			{
				OFFSET 3.470700 6.669187 -0.816635 
				CHANNELS 3 Yrotation Zrotation Xrotation
				JOINT lShldr
				{
					OFFSET 3.198488 0.000000 0.000000 
					CHANNELS 3 Zrotation Yrotation Xrotation
					JOINT lForeArm
					{
						OFFSET 10.139888 0.000000 0.000000 
						CHANNELS 3 Yrotation Zrotation Xrotation
						JOINT lHand
						{
							OFFSET 8.370511 0.000000 0.000000 
							CHANNELS 3 Zrotation Yrotation Xrotation
							End Site
							{
								OFFSET 4.083176 0.000000 0.000000 
							}
						}
					}
				}
			}
			JOINT rCollar
			{
				OFFSET -3.470700 6.669187 -0.816635 
				CHANNELS 3 Yrotation Zrotation Xrotation
				JOINT rShldr
				{
					OFFSET -3.198488 0.000000 0.000000 
					CHANNELS 3 Zrotation Yrotation Xrotation
					JOINT rForeArm
					{
						OFFSET -10.139888 0.000000 0.000000 
						CHANNELS 3 Yrotation Zrotation Xrotation
						JOINT rHand
						{
							OFFSET -8.370511 0.000000 0.000000 
							CHANNELS 3 Zrotation Yrotation Xrotation
							End Site
							{
								OFFSET -4.083176 0.000000 0.000000 
							}
						}
					}
				}
			}
		}
	}
	JOINT lThigh
	{
		OFFSET 5.308129 -1.633274 1.361059 
		CHANNELS 3 Xrotation Zrotation Yrotation
		JOINT lShin
		{
			OFFSET -2.041588 -20.007561 0.000000 
			CHANNELS 3 Xrotation Zrotation Yrotation
			JOINT lFoot
			{
				OFFSET 0.000000 -19.190928 -1.224953 
				CHANNELS 3 Xrotation Yrotation Zrotation
				End Site
				{
					OFFSET 0.000000 -2.449906 4.627600 
				}
			}
		}
	}
	JOINT rThigh
	{
		OFFSET -5.308129 -1.633274 1.361059 
		CHANNELS 3 Xrotation Zrotation Yrotation
		JOINT rShin
		{
			OFFSET 2.041588 -20.007561 0.000000 
			CHANNELS 3 Xrotation Zrotation Yrotation
			JOINT rFoot
			{
				OFFSET 0.000000 -19.190928 -1.224953 
				CHANNELS 3 Xrotation Yrotation Zrotation
				End Site
				{
					OFFSET 0.000000 -2.449906 4.627600 
				}
			}
		}
	}
}
MOTION
Frames: 8
Frame Time: 0.016667
-8.765234 41.519096 69.863411 -3.473520 -10.255000 11.194100 -21.596701 3.845740 -3.956100 16.751499 3.303270 -1.371560 -12.383552 4.838603 -11.308678 4.639260 0.047421 -7.078630 2.000000 -2.000000 0.000000 10.194800 -17.668100 133.194000 93.281799 -0.206464 0.156051 0.050608 -0.043373 -152.604996 -2.000000 2.000000 0.000000 60.769402 32.316700 -146.274002 -97.422302 0.198449 0.116131 -0.082486 0.074449 -164.567993 -18.633030 4.860247 -10.248121 50.782345 2.013007 3.397872 -28.013136 -4.899312 -3.276217 -8.244977 3.608915 11.247890 39.321915 -3.134862 -2.589923 -18.392059 2.082022 -0.413049 
-8.973869 41.464489 70.017090 -3.695590 -11.363700 11.451000 -21.326500 4.342580 -4.134180 17.180700 3.626530 -1.365700 -13.114324 4.764473 -11.131193 4.854230 0.105563 -7.409620 2.000000 -2.000000 0.000000 10.930000 -16.673901 131.959000 93.740799 -0.205292 0.155979 0.061011 -0.055345 -153.425995 -2.000000 2.000000 0.000000 59.218201 32.747501 -146.800995 -97.422302 0.198449 0.116131 -0.081969 0.073454 -164.167999 -18.864300 6.122494 -11.228997 51.634056 2.007565 3.422030 -28.357527 -5.247376 -3.471907 -7.062695 4.169490 10.377540 36.794247 -3.274642 -2.421748 -17.650295 5.703636 0.711302 
-9.210960 41.445332 70.169075 -3.628590 -12.319800 11.574800 -21.607000 4.594970 -4.378270 17.042700 3.879430 -1.448430 -13.547004 4.021698 -11.252347 4.444710 0.409142 -7.661970 2.000000 -2.000000 0.000000 11.604900 -15.668600 131.654999 93.936096 -0.204794 0.155946 0.061533 -0.057073 -154.070007 -2.000000 2.000000 0.000000 58.299500 32.766102 -146.322006 -97.637100 0.197977 0.116069 -0.081757 0.073040 -164.001999 -19.421068 7.211153 -11.987610 52.399429 1.971346 3.452738 -28.741980 -4.551121 -3.077234 -6.189900 4.660813 8.965902 34.480339 -3.421448 -2.304641 -16.986252 7.835368 1.285021 
-9.451847 41.491089 70.321640 -3.758140 -12.971000 11.975700 -21.358900 4.857870 -4.568990 17.295601 4.280190 -1.502730 -13.912805 3.490244 -11.449570 4.356900 0.448389 -7.896730 2.000000 -2.000000 0.000000 12.350200 -15.133900 130.110992 93.945900 -0.204769 0.155944 0.061984 -0.048742 -154.606995 -2.000000 2.000000 0.000000 56.905399 33.568298 -147.028000 -97.578499 0.198106 0.116086 -0.081608 0.072748 -163.884995 -19.784861 7.908281 -12.995458 53.086205 1.949802 3.492695 -28.782167 -4.613687 -3.100492 -5.237576 5.009767 7.149330 32.518883 -3.531804 -2.158229 -16.210335 10.253304 1.824081 
-9.690116 41.481697 70.463066 -4.271610 -14.736100 12.308100 -21.504200 5.367410 -4.795700 17.051001 4.230380 -1.537510 -14.485612 4.014946 -10.873435 4.669550 0.516078 -8.049750 2.000000 -2.000000 0.000000 12.800500 -14.343500 129.690002 94.209503 -0.204097 0.155896 0.062854 -0.051392 -155.602997 -2.000000 2.000000 0.000000 55.782600 33.734299 -147.028000 -97.471100 0.198342 0.116117 -0.081620 0.072772 -163.893997 -20.423111 9.914736 -14.118346 54.378654 1.931357 3.526060 -28.657326 -5.547903 -3.542064 -4.001946 6.659990 4.828942 30.219509 -3.564134 -2.019723 -14.545197 12.442163 2.029259 
-9.930732 41.530788 70.574509 -4.385690 -15.844500 12.771600 -21.691299 5.721450 -5.158300 16.971100 4.561400 -1.652580 -14.342395 2.597960 -11.041783 4.035830 1.035000 -8.094290 2.000000 -2.000000 0.000000 13.065500 -13.719300 129.141998 94.326698 -0.203798 0.155874 0.064180 -0.055158 -157.029007 -2.000000 2.000000 0.000000 54.718300 33.695499 -147.164993 -97.627403 0.197998 0.116071 -0.081744 0.073016 -163.992004 -21.124617 11.092774 -15.097749 55.330227 1.886829 3.564853 -28.423922 -5.053171 -3.236596 -3.358264 7.799412 2.629229 28.493193 -3.567686 -1.916948 -13.837442 12.852775 1.950790 
-10.197985 41.562794 70.664948 -4.342640 -16.653900 13.110100 -21.393900 6.135860 -5.278790 17.370501 5.031310 -1.646680 -14.791783 3.185939 -10.585067 4.631220 0.848174 -8.212500 2.000000 -2.000000 0.000000 13.606200 -13.546300 127.293999 94.092400 -0.204396 0.155918 0.065241 -0.057973 -158.102997 -2.000000 2.000000 0.000000 53.139999 34.713799 -148.520004 -97.226997 0.198878 0.116186 -0.081066 0.071673 -163.455002 -21.954805 11.924361 -16.067266 56.174114 1.831458 3.590840 -27.783537 -4.885472 -3.033769 -2.904386 8.707767 0.864089 27.098953 -3.515200 -1.847482 -14.295653 12.534057 1.926100 
-10.452016 41.605068 70.758972 -4.670730 -17.932400 13.666700 -21.579300 6.394000 -5.563580 16.998199 5.000160 -1.755530 -15.023153 3.632204 -10.205887 4.845990 0.808633 -8.229430 2.000000 -2.000000 0.000000 14.105400 -13.097700 126.815002 94.014198 -0.204595 0.155932 0.066230 -0.060464 -159.059998 -2.000000 2.000000 0.000000 52.476299 34.792301 -148.675995 -97.217201 0.198900 0.116189 -0.081348 0.072235 -163.679993 -22.673294 13.357972 -17.303764 57.105412 1.812917 3.641414 -27.111263 -4.997479 -2.988477 -2.110979 10.287829 -0.401341 25.387102 -3.470633 -1.764535 -13.235345 12.869517 1.808529 
